# xmcd
#
# Track frame offsets:
#	150
#	17725
#	36212
#	51157
#	67597
#	82047
#	97837
#	121127
#	136562
#	154727
#	166637
#	182157
#	196405
#	208867
#	221610
#	235837
#	248500
#	262990
#	276777
#	295880
#
# Disc length: 4120 seconds
#
# Revision: 0
# Processed by: cddbd v1.4PL0 Copyright (c) Steve Scherf et al.
# Submitted via: audiograbber 1.81.03
#
DISCID=0a101614
DTITLE=Various Artist - Sky's The Limit
DYEAR=1900
DGENRE=
TTITLE0=Time - Michael Terry
TTITLE1=Holdin' On For Dear Life - Jack Diamond
TTITLE2=For Always - Lisa Logan
TTITLE3=If Wishes Were Horses - Lindsay Thomas Morgan
TTITLE4=Just Another Day - Diane Raeside
TTITLE5=When Time Is Your Keeper - Randy Moisan
TTITLE6=In Your Own Heart - Overly Sober
TTITLE7=Hard time - Cody Lee Jones
TTITLE8=Hot Lookin' Cool Dancin' Cowgirl - Cody Lee Jones
TTITLE9=You Put Out The Flame - Dieter Boehme
TTITLE10=Honky Tonk Rodeo - Charlie Clements
TTITLE11=Straight Country Songs - Larry Beaird
TTITLE12=The Grass On The Other Side Died - Larry Beaird
TTITLE13=If Not For Love - Bobby McHee
TTITLE14=Blue Zone - John Draycott
TTITLE15=Takin' A Heart Break - Jenny Lee West
TTITLE16=Workin' Overtime - Phil and Sassafrass
TTITLE17=Love Made A Monkey Out Of Me - Phil and Sassafrass
TTITLE18=So Free - Silver
TTITLE19=Miss Behave - Randall Cousins
EXTD=
EXTT0=
EXTT1=
EXTT2=
EXTT3=
EXTT4=
EXTT5=
EXTT6=
EXTT7=
EXTT8=
EXTT9=
EXTT10=
EXTT11=
EXTT12=
EXTT13=
EXTT14=
EXTT15=
EXTT16=
EXTT17=
EXTT18=
EXTT19=
PLAYORDER=
